<svg width="1000" height="280" viewBox="0 0 1000 280" xmlns="http://www.w3.org/2000/svg">
<rect x="0" y="0" width="1000" height="280" rx="12" fill="#0d1117"/>
<text x="0" y="28" fill="#e6edf3" font-family="Segoe UI, Arial, sans-serif" font-size="20" font-weight="600">Jazyky — veřejné repozitáře celkem</text>
<defs><clipPath id="barclip"><rect x="0" y="48" width="1000" height="26" rx="13" ry="13"/></clipPath></defs>
<g clip-path="url(#barclip)">
  <rect x="0.00" y="48" width="625.47" height="26" fill="#478cbf"/>
  <rect x="625.47" y="48" width="190.72" height="26" fill="#3572A5"/>
  <rect x="816.19" y="48" width="63.04" height="26" fill="#f34b7d"/>
  <rect x="879.23" y="48" width="61.47" height="26" fill="#f1e05a"/>
  <rect x="940.69" y="48" width="20.15" height="26" fill="#89e051"/>
  <rect x="960.84" y="48" width="12.94" height="26" fill="#44a51c"/>
  <rect x="973.79" y="48" width="9.02" height="26" fill="#8e44ad"/>
  <rect x="982.80" y="48" width="5.53" height="26" fill="#563d7c"/>
  <rect x="988.33" y="48" width="4.96" height="26" fill="#e34c26"/>
  <rect x="993.28" y="48" width="4.58" height="26" fill="#5686a5"/>
  <rect x="997.87" y="48" width="1.65" height="26" fill="#da3434"/>
  <rect x="999.51" y="48" width="0.50" height="26" fill="#427819"/>
  <rect x="999.92" y="48" width="0.50" height="26" fill="#8899a6"/>
</g>
  <circle cx="8" cy="114" r="6" fill="#478cbf"/>
  <text x="24" y="119" fill="#c9d1d9" font-family="Segoe UI, Arial, sans-serif" font-size="16">GDScript  62.5%</text>
  <circle cx="341" cy="114" r="6" fill="#3572A5"/>
  <text x="357" y="119" fill="#c9d1d9" font-family="Segoe UI, Arial, sans-serif" font-size="16">Python  19.1%</text>
  <circle cx="674" cy="114" r="6" fill="#f34b7d"/>
  <text x="690" y="119" fill="#c9d1d9" font-family="Segoe UI, Arial, sans-serif" font-size="16">C++  6.3%</text>
  <circle cx="8" cy="148" r="6" fill="#f1e05a"/>
  <text x="24" y="153" fill="#c9d1d9" font-family="Segoe UI, Arial, sans-serif" font-size="16">JavaScript  6.1%</text>
  <circle cx="341" cy="148" r="6" fill="#89e051"/>
  <text x="357" y="153" fill="#c9d1d9" font-family="Segoe UI, Arial, sans-serif" font-size="16">Shell  2.0%</text>
  <circle cx="674" cy="148" r="6" fill="#44a51c"/>
  <text x="690" y="153" fill="#c9d1d9" font-family="Segoe UI, Arial, sans-serif" font-size="16">QML  1.3%</text>
  <circle cx="8" cy="182" r="6" fill="#8e44ad"/>
  <text x="24" y="187" fill="#c9d1d9" font-family="Segoe UI, Arial, sans-serif" font-size="16">GDShader  0.9%</text>
  <circle cx="341" cy="182" r="6" fill="#563d7c"/>
  <text x="357" y="187" fill="#c9d1d9" font-family="Segoe UI, Arial, sans-serif" font-size="16">CSS  0.6%</text>
  <circle cx="674" cy="182" r="6" fill="#e34c26"/>
  <text x="690" y="187" fill="#c9d1d9" font-family="Segoe UI, Arial, sans-serif" font-size="16">HTML  0.5%</text>
  <circle cx="8" cy="216" r="6" fill="#5686a5"/>
  <text x="24" y="221" fill="#c9d1d9" font-family="Segoe UI, Arial, sans-serif" font-size="16">GLSL  0.5%</text>
  <circle cx="341" cy="216" r="6" fill="#da3434"/>
  <text x="357" y="221" fill="#c9d1d9" font-family="Segoe UI, Arial, sans-serif" font-size="16">CMake  0.2%</text>
  <circle cx="674" cy="216" r="6" fill="#427819"/>
  <text x="690" y="221" fill="#c9d1d9" font-family="Segoe UI, Arial, sans-serif" font-size="16">Makefile  0.0%</text>
  <circle cx="8" cy="250" r="6" fill="#8899a6"/>
  <text x="24" y="255" fill="#c9d1d9" font-family="Segoe UI, Arial, sans-serif" font-size="16">C  0.0%</text>
</svg>